<?xml version="1.0" encoding="UTF-8"?><svg id="a" xmlns="http://www.w3.org/2000/svg" xmlns:xlink="http://www.w3.org/1999/xlink" viewBox="0 0 1245.32 945"><defs><style>.q{clip-path:url(#l);}.r{fill:#f5c0b2;}.s{clip-path:url(#o);}.t{clip-path:url(#m);}.u{clip-path:url(#c);}.v{clip-path:url(#d);}.w{fill:none;}.x{clip-path:url(#p);}.y{clip-path:url(#f);}.a`{clip-path:url(#j);}.aa{clip-path:url(#i);}.ab{clip-path:url(#g);}</style><clipPath id="c"><rect class="w" y="0" width="467.32" height="417"/></clipPath><clipPath id="d"><rect class="w" y="0" width="467.32" height="417"/></clipPath><clipPath id="f"><rect class="w" x="370" y="24" width="467.32" height="417"/></clipPath><clipPath id="g"><rect class="w" x="370" y="24" width="467.32" height="417"/></clipPath><clipPath id="i"><rect class="w" x="45" y="331" width="467.32" height="417"/></clipPath><clipPath id="j"><rect class="w" x="45" y="331" width="467.32" height="417"/></clipPath><clipPath id="l"><rect class="w" x="631" y="528" width="467.32" height="417"/></clipPath><clipPath id="m"><rect class="w" x="631" y="528" width="467.32" height="417"/></clipPath><clipPath id="o"><rect class="w" x="778" y="30" width="467.32" height="417"/></clipPath><clipPath id="p"><rect class="w" x="778" y="30" width="467.32" height="417"/></clipPath></defs><g id="b"><g class="u"><g class="v"><path class="r" d="M62.95,47.12l.71-1.36c9.38-17.91,24.23-31.29,39.15-35.29l.19-.05c-7.55,14.41-18.75,26.07-30.83,32.1l-9.22,4.6Z"/><path class="r" d="M54.69,53.37l1.42-.59c18.68-7.73,38.66-8.49,52.67-1.99l.18,.09c-15.04,6.22-31.1,7.99-44.24,4.87l-10.03-2.38Z"/><path class="r" d="M54.89,53.47l.77-1.33C65.77,34.65,69.14,14.94,64.54,.19l-.06-.19c-8.14,14.09-12.01,29.78-10.64,43.22l1.04,10.26Z"/><path class="r" d="M42.83,60.67l1.52-.19c20.06-2.52,39.52,2.04,51.32,12.01l.15,.13c-16.15,2.03-32.1-.51-43.96-6.99l-9.04-4.95Z"/><path class="r" d="M43.01,60.32l.56-1.43c7.38-18.82,7.77-38.81,1.02-52.7l-.09-.18c-5.74,14.63-7.31,30.14-4.38,42.96,.1,.46,.21,.91,.33,1.36l2.57,9.99Z"/><path class="r" d="M64.15,46.09c-17.77,14.59-37.17,21.39-55.4,35.83C5.75,84.29,2.83,86.68,0,89.07"/><path class="r" d="M31.83,66.97l1.53,.1c20.17,1.36,38.41,9.55,48.08,21.6l.13,.16c-16.23-1.1-31.41-6.64-41.8-15.27l-7.93-6.59Z"/><path class="r" d="M31.01,66.36l.56-1.43c7.38-18.82,7.77-38.81,1.02-52.7l-.09-.18c-5.94,15.15-7.42,31.24-4.05,44.32l2.57,9.99Z"/><path class="r" d="M21.44,74.62l1.51,.27c19.9,3.55,37.14,13.67,45.45,26.7l.11,.17c-16.02-2.86-30.51-10.02-39.9-19.72l-7.17-7.41Z"/><path class="r" d="M20.8,73.15l.38-1.48c5.04-19.58,2.98-39.46-5.41-52.43l-.11-.17c-4.05,15.76-3.55,31.91,1.38,44.48l3.77,9.6Z"/><path class="r" d="M404.37,362.37l-.71-1.36c-9.38-17.91-24.23-31.29-39.15-35.29l-.19-.05c7.55,14.41,18.75,26.07,30.83,32.1l9.22,4.6Z"/><path class="r" d="M412.64,368.61l-1.42-.59c-18.68-7.73-38.66-8.49-52.67-1.99l-.18,.09c15.04,6.22,31.1,7.99,44.24,4.87l10.03-2.38Z"/><path class="r" d="M412.43,368.72l-.77-1.33c-10.12-17.5-13.49-37.21-8.89-51.96l.06-.19c8.14,14.09,12.01,29.78,10.64,43.22l-1.04,10.26Z"/><path class="r" d="M424.5,375.91l-1.52-.19c-20.06-2.52-39.52,2.04-51.32,12.01l-.15,.13c16.15,2.03,32.1-.51,43.96-6.99l9.04-4.95Z"/><path class="r" d="M424.31,375.56l-.56-1.43c-7.38-18.82-7.77-38.81-1.02-52.7l.09-.18c5.74,14.63,7.31,30.14,4.38,42.96-.1,.46-.21,.91-.33,1.36l-2.57,9.99Z"/><path class="r" d="M403.18,361.34c17.77,14.59,37.17,21.39,55.4,35.83,2.99,2.37,5.91,4.76,8.74,7.15"/><path class="r" d="M435.49,382.21l-1.53,.1c-20.17,1.36-38.41,9.55-48.08,21.6l-.13,.16c16.23-1.1,31.41-6.64,41.8-15.27l7.93-6.59Z"/><path class="r" d="M436.32,381.61l-.56-1.43c-7.38-18.82-7.77-38.81-1.02-52.7l.09-.18c5.94,15.15,7.42,31.24,4.05,44.32l-2.57,9.99Z"/><path class="r" d="M445.88,389.87l-1.51,.27c-19.9,3.55-37.14,13.67-45.45,26.7l-.11,.17c16.02-2.86,30.51-10.02,39.9-19.72l7.17-7.41Z"/><path class="r" d="M446.53,388.4l-.38-1.48c-5.04-19.58-2.98-39.46,5.41-52.43l.11-.17c4.05,15.76,3.55,31.91-1.38,44.48l-3.77,9.6Z"/></g></g></g><g id="e"><g class="y"><g class="ab"><path class="r" d="M432.95,71.12l.71-1.36c9.38-17.91,24.23-31.29,39.15-35.29l.19-.05c-7.55,14.41-18.75,26.07-30.83,32.1l-9.22,4.6Z"/><path class="r" d="M424.69,77.37l1.42-.59c18.68-7.73,38.66-8.49,52.67-1.99l.18,.09c-15.04,6.22-31.1,7.99-44.24,4.87l-10.03-2.38Z"/><path class="r" d="M424.89,77.47l.77-1.33c10.12-17.5,13.49-37.21,8.89-51.96l-.06-.19c-8.14,14.09-12.01,29.78-10.64,43.22l1.04,10.26Z"/><path class="r" d="M412.83,84.67l1.52-.19c20.06-2.52,39.52,2.04,51.32,12.01l.15,.13c-16.15,2.03-32.1-.51-43.96-6.99l-9.04-4.95Z"/><path class="r" d="M413.01,84.32l.56-1.43c7.38-18.82,7.77-38.81,1.02-52.7l-.09-.18c-5.74,14.63-7.31,30.14-4.38,42.96,.1,.46,.21,.91,.33,1.36l2.57,9.99Z"/><path class="r" d="M434.15,70.09c-17.77,14.59-37.17,21.39-55.4,35.83-2.99,2.37-5.91,4.76-8.74,7.15"/><path class="r" d="M401.83,90.97l1.53,.1c20.17,1.36,38.41,9.55,48.08,21.6l.13,.16c-16.23-1.1-31.41-6.64-41.8-15.27l-7.93-6.59Z"/><path class="r" d="M401.01,90.36l.56-1.43c7.38-18.82,7.77-38.81,1.02-52.7l-.09-.18c-5.94,15.15-7.42,31.24-4.05,44.32l2.57,9.99Z"/><path class="r" d="M391.44,98.62l1.51,.27c19.9,3.55,37.14,13.67,45.45,26.7l.11,.17c-16.02-2.86-30.51-10.02-39.9-19.72l-7.17-7.41Z"/><path class="r" d="M390.8,97.15l.38-1.48c5.04-19.58,2.98-39.46-5.41-52.43l-.11-.17c-4.05,15.76-3.55,31.91,1.38,44.48l3.77,9.6Z"/><path class="r" d="M774.37,386.37l-.71-1.36c-9.38-17.91-24.23-31.29-39.15-35.29l-.19-.05c7.55,14.41,18.75,26.07,30.83,32.1l9.22,4.6Z"/><path class="r" d="M782.64,392.61l-1.42-.59c-18.68-7.73-38.66-8.49-52.67-1.99l-.18,.09c15.04,6.22,31.1,7.99,44.24,4.87l10.03-2.38Z"/><path class="r" d="M782.43,392.72l-.77-1.33c-10.12-17.5-13.49-37.21-8.89-51.96l.06-.19c8.14,14.09,12.01,29.78,10.64,43.22l-1.04,10.26Z"/><path class="r" d="M794.5,399.91l-1.52-.19c-20.06-2.52-39.52,2.04-51.32,12.01l-.15,.13c16.15,2.03,32.1-.51,43.96-6.99l9.04-4.95Z"/><path class="r" d="M794.31,399.56l-.56-1.43c-7.38-18.82-7.77-38.81-1.02-52.7l.09-.18c5.74,14.63,7.31,30.14,4.38,42.96-.1,.46-.21,.91-.33,1.36l-2.57,9.99Z"/><path class="r" d="M773.18,385.34c17.77,14.59,37.17,21.39,55.4,35.83,2.99,2.37,5.91,4.76,8.74,7.15"/><path class="r" d="M805.49,406.21l-1.53,.1c-20.17,1.36-38.41,9.55-48.08,21.6l-.13,.16c16.23-1.1,31.41-6.64,41.8-15.27l7.93-6.59Z"/><path class="r" d="M806.32,405.61l-.56-1.43c-7.38-18.82-7.77-38.81-1.02-52.7l.09-.18c5.94,15.15,7.42,31.24,4.05,44.32l-2.57,9.99Z"/><path class="r" d="M815.88,413.87l-1.51,.27c-19.9,3.55-37.14,13.67-45.45,26.7l-.11,.17c16.02-2.86,30.51-10.02,39.9-19.72l7.17-7.41Z"/><path class="r" d="M816.53,412.4l-.38-1.48c-5.04-19.58-2.98-39.46,5.41-52.43l.11-.17c4.05,15.76,3.55,31.91-1.38,44.48l-3.77,9.6Z"/></g></g></g><g id="h"><g class="aa"><g class="a`"><path class="r" d="M107.95,378.12l.71-1.36c9.38-17.91,24.23-31.29,39.15-35.29l.19-.05c-7.55,14.41-18.75,26.07-30.83,32.1l-9.22,4.6Z"/><path class="r" d="M99.69,384.37l1.42-.59c18.68-7.73,38.66-8.49,52.67-1.99l.18,.09c-15.04,6.22-31.1,7.99-44.24,4.87l-10.03-2.38Z"/><path class="r" d="M99.89,384.47l.77-1.33c10.12-17.5,13.49-37.21,8.89-51.96l-.06-.19c-8.14,14.09-12.01,29.78-10.64,43.22l1.04,10.26Z"/><path class="r" d="M87.83,391.67l1.52-.19c20.06-2.52,39.52,2.04,51.32,12.01l.15,.13c-16.15,2.03-32.1-.51-43.96-6.99l-9.04-4.95Z"/><path class="r" d="M88.01,391.32l.56-1.43c7.38-18.82,7.77-38.81,1.02-52.7l-.09-.18c-5.74,14.63-7.31,30.14-4.38,42.96,.1,.46,.21,.91,.33,1.36l2.57,9.99Z"/><path class="r" d="M109.15,377.09c-17.77,14.59-37.17,21.39-55.4,35.83-2.99,2.37-5.91,4.76-8.74,7.15"/><path class="r" d="M76.83,397.97l1.53,.1c20.17,1.36,38.41,9.55,48.08,21.6l.13,.16c-16.23-1.1-31.41-6.64-41.8-15.27l-7.93-6.59Z"/><path class="r" d="M76.01,397.36l.56-1.43c7.38-18.82,7.77-38.81,1.02-52.7l-.09-.18c-5.94,15.15-7.42,31.24-4.05,44.32l2.57,9.99Z"/><path class="r" d="M66.44,405.62l1.51,.27c19.9,3.55,37.14,13.67,45.45,26.7l.11,.17c-16.02-2.86-30.51-10.02-39.9-19.72l-7.17-7.41Z"/><path class="r" d="M65.8,404.15l.38-1.48c5.04-19.58,2.98-39.46-5.41-52.43l-.11-.17c-4.05,15.76-3.55,31.91,1.38,44.48l3.77,9.6Z"/><path class="r" d="M449.37,693.37l-.71-1.36c-9.38-17.91-24.23-31.29-39.15-35.29l-.19-.05c7.55,14.41,18.75,26.07,30.83,32.1l9.22,4.6Z"/><path class="r" d="M457.64,699.61l-1.42-.59c-18.68-7.73-38.66-8.49-52.67-1.99l-.18,.09c15.04,6.22,31.1,7.99,44.24,4.87l10.03-2.38Z"/><path class="r" d="M457.43,699.72l-.77-1.33c-10.12-17.5-13.49-37.21-8.89-51.96l.06-.19c8.14,14.09,12.01,29.78,10.64,43.22l-1.04,10.26Z"/><path class="r" d="M469.5,706.91l-1.52-.19c-20.06-2.52-39.52,2.04-51.32,12.01l-.15,.13c16.15,2.03,32.1-.51,43.96-6.99l9.04-4.95Z"/><path class="r" d="M469.31,706.56l-.56-1.43c-7.38-18.82-7.77-38.81-1.02-52.7l.09-.18c5.74,14.63,7.31,30.14,4.38,42.96-.1,.46-.21,.91-.33,1.36l-2.57,9.99Z"/><path class="r" d="M448.18,692.34c17.77,14.59,37.17,21.39,55.4,35.83,2.99,2.37,5.91,4.76,8.74,7.15"/><path class="r" d="M480.49,713.21l-1.53,.1c-20.17,1.36-38.41,9.55-48.08,21.6l-.13,.16c16.23-1.1,31.41-6.64,41.8-15.27l7.93-6.59Z"/><path class="r" d="M481.32,712.61l-.56-1.43c-7.38-18.82-7.77-38.81-1.02-52.7l.09-.18c5.94,15.15,7.42,31.24,4.05,44.32l-2.57,9.99Z"/><path class="r" d="M490.88,720.87l-1.51,.27c-19.9,3.55-37.14,13.67-45.45,26.7l-.11,.17c16.02-2.86,30.51-10.02,39.9-19.72l7.17-7.41Z"/><path class="r" d="M491.53,719.4l-.38-1.48c-5.04-19.58-2.98-39.46,5.41-52.43l.11-.17c4.05,15.76,3.55,31.91-1.38,44.48l-3.77,9.6Z"/></g></g></g><g id="k"><g class="q"><g class="t"><path class="r" d="M693.95,575.12l.71-1.36c9.38-17.91,24.23-31.29,39.15-35.29l.19-.05c-7.55,14.41-18.75,26.07-30.83,32.1l-9.22,4.6Z"/><path class="r" d="M685.69,581.37l1.42-.59c18.68-7.73,38.66-8.49,52.67-1.99l.18,.09c-15.04,6.22-31.1,7.99-44.24,4.87l-10.03-2.38Z"/><path class="r" d="M685.89,581.47l.77-1.33c10.12-17.5,13.49-37.21,8.89-51.96l-.06-.19c-8.14,14.09-12.01,29.78-10.64,43.22l1.04,10.26Z"/><path class="r" d="M673.83,588.67l1.52-.19c20.06-2.52,39.52,2.04,51.32,12.01l.15,.13c-16.15,2.03-32.1-.51-43.96-6.99l-9.04-4.95Z"/><path class="r" d="M674.01,588.32l.56-1.43c7.38-18.82,7.77-38.81,1.02-52.7l-.09-.18c-5.74,14.63-7.31,30.14-4.38,42.96,.1,.46,.21,.91,.33,1.36l2.57,9.99Z"/><path class="r" d="M695.15,574.09c-17.77,14.59-37.17,21.39-55.4,35.83-2.99,2.37-5.91,4.76-8.74,7.15"/><path class="r" d="M662.83,594.97l1.53,.1c20.17,1.36,38.41,9.55,48.08,21.6l.13,.16c-16.23-1.1-31.41-6.64-41.8-15.27l-7.93-6.59Z"/><path class="r" d="M662.01,594.36l.56-1.43c7.38-18.82,7.77-38.81,1.02-52.7l-.09-.18c-5.94,15.15-7.42,31.24-4.05,44.32l2.57,9.99Z"/><path class="r" d="M652.44,602.62l1.51,.27c19.9,3.55,37.14,13.67,45.45,26.7l.11,.17c-16.02-2.86-30.51-10.02-39.9-19.72l-7.17-7.41Z"/><path class="r" d="M651.8,601.15l.38-1.48c5.04-19.58,2.98-39.46-5.41-52.43l-.11-.17c-4.05,15.76-3.55,31.91,1.38,44.48l3.77,9.6Z"/><path class="r" d="M1035.37,890.37l-.71-1.36c-9.38-17.91-24.23-31.29-39.15-35.29l-.19-.05c7.55,14.41,18.75,26.07,30.83,32.1l9.22,4.6Z"/><path class="r" d="M1043.64,896.61l-1.42-.59c-18.68-7.73-38.66-8.49-52.67-1.99l-.18,.09c15.04,6.22,31.1,7.99,44.24,4.87l10.03-2.38Z"/><path class="r" d="M1043.43,896.72l-.77-1.33c-10.12-17.5-13.49-37.21-8.89-51.96l.06-.19c8.14,14.09,12.01,29.78,10.64,43.22l-1.04,10.26Z"/><path class="r" d="M1055.5,903.91l-1.52-.19c-20.06-2.52-39.52,2.04-51.32,12.01l-.15,.13c16.15,2.03,32.1-.51,43.96-6.99l9.04-4.95Z"/><path class="r" d="M1055.31,903.56l-.56-1.43c-7.38-18.82-7.77-38.81-1.02-52.7l.09-.18c5.74,14.63,7.31,30.14,4.38,42.96-.1,.46-.21,.91-.33,1.36l-2.57,9.99Z"/><path class="r" d="M1034.18,889.34c17.77,14.59,37.17,21.39,55.4,35.83,2.99,2.37,5.91,4.76,8.74,7.15"/><path class="r" d="M1066.49,910.21l-1.53,.1c-20.17,1.36-38.41,9.55-48.08,21.6l-.13,.16c16.23-1.1,31.41-6.64,41.8-15.27l7.93-6.59Z"/><path class="r" d="M1067.32,909.61l-.56-1.43c-7.38-18.82-7.77-38.81-1.02-52.7l.09-.18c5.94,15.15,7.42,31.24,4.05,44.32l-2.57,9.99Z"/><path class="r" d="M1076.88,917.87l-1.51,.27c-19.9,3.55-37.14,13.67-45.45,26.7l-.11,.17c16.02-2.86,30.51-10.02,39.9-19.72l7.17-7.41Z"/><path class="r" d="M1077.53,916.4l-.38-1.48c-5.04-19.58-2.98-39.46,5.41-52.43l.11-.17c4.05,15.76,3.55,31.91-1.38,44.48l-3.77,9.6Z"/></g></g></g><g id="n"><g class="s"><g class="x"><path class="r" d="M840.95,77.12l.71-1.36c9.38-17.91,24.23-31.29,39.15-35.29l.19-.05c-7.55,14.41-18.75,26.07-30.83,32.1l-9.22,4.6Z"/><path class="r" d="M832.69,83.37l1.42-.59c18.68-7.73,38.66-8.49,52.67-1.99l.18,.09c-15.04,6.22-31.1,7.99-44.24,4.87l-10.03-2.38Z"/><path class="r" d="M832.89,83.47l.77-1.33c10.12-17.5,13.49-37.21,8.89-51.96l-.06-.19c-8.14,14.09-12.01,29.78-10.64,43.22l1.04,10.26Z"/><path class="r" d="M820.83,90.67l1.52-.19c20.06-2.52,39.52,2.04,51.32,12.01l.15,.13c-16.15,2.03-32.1-.51-43.96-6.99l-9.04-4.95Z"/><path class="r" d="M821.01,90.32l.56-1.43c7.38-18.82,7.77-38.81,1.02-52.7l-.09-.18c-5.74,14.63-7.31,30.14-4.38,42.96,.1,.46,.21,.91,.33,1.36l2.57,9.99Z"/><path class="r" d="M842.15,76.09c-17.77,14.59-37.17,21.39-55.4,35.83-2.99,2.37-5.91,4.76-8.74,7.15"/><path class="r" d="M809.83,96.97l1.53,.1c20.17,1.36,38.41,9.55,48.08,21.6l.13,.16c-16.23-1.1-31.41-6.64-41.8-15.27l-7.93-6.59Z"/><path class="r" d="M809.01,96.36l.56-1.43c7.38-18.82,7.77-38.81,1.02-52.7l-.09-.18c-5.94,15.15-7.42,31.24-4.05,44.32l2.57,9.99Z"/><path class="r" d="M799.44,104.62l1.51,.27c19.9,3.55,37.14,13.67,45.45,26.7l.11,.17c-16.02-2.86-30.51-10.02-39.9-19.72l-7.17-7.41Z"/><path class="r" d="M798.8,103.15l.38-1.48c5.04-19.58,2.98-39.46-5.41-52.43l-.11-.17c-4.05,15.76-3.55,31.91,1.38,44.48l3.77,9.6Z"/><path class="r" d="M1182.37,392.37l-.71-1.36c-9.38-17.91-24.23-31.29-39.15-35.29l-.19-.05c7.55,14.41,18.75,26.07,30.83,32.1l9.22,4.6Z"/><path class="r" d="M1190.64,398.61l-1.42-.59c-18.68-7.73-38.66-8.49-52.67-1.99l-.18,.09c15.04,6.22,31.1,7.99,44.24,4.87l10.03-2.38Z"/><path class="r" d="M1190.43,398.72l-.77-1.33c-10.12-17.5-13.49-37.21-8.89-51.96l.06-.19c8.14,14.09,12.01,29.78,10.64,43.22l-1.04,10.26Z"/><path class="r" d="M1202.5,405.91l-1.52-.19c-20.06-2.52-39.52,2.04-51.32,12.01l-.15,.13c16.15,2.03,32.1-.51,43.96-6.99l9.04-4.95Z"/><path class="r" d="M1202.31,405.56l-.56-1.43c-7.38-18.82-7.77-38.81-1.02-52.7l.09-.18c5.74,14.63,7.31,30.14,4.38,42.96-.1,.46-.21,.91-.33,1.36l-2.57,9.99Z"/><path class="r" d="M1181.18,391.34c17.77,14.59,37.17,21.39,55.4,35.83,2.99,2.37,5.91,4.76,8.74,7.15"/><path class="r" d="M1213.49,412.21l-1.53,.1c-20.17,1.36-38.41,9.55-48.08,21.6l-.13,.16c16.23-1.1,31.41-6.64,41.8-15.27l7.93-6.59Z"/><path class="r" d="M1214.32,411.61l-.56-1.43c-7.38-18.82-7.77-38.81-1.02-52.7l.09-.18c5.94,15.15,7.42,31.24,4.05,44.32l-2.57,9.99Z"/><path class="r" d="M1223.88,419.87l-1.51,.27c-19.9,3.55-37.14,13.67-45.45,26.7l-.11,.17c16.02-2.86,30.51-10.02,39.9-19.72l7.17-7.41Z"/><path class="r" d="M1224.53,418.4l-.38-1.48c-5.04-19.58-2.98-39.46,5.41-52.43l.11-.17c4.05,15.76,3.55,31.91-1.38,44.48l-3.77,9.6Z"/></g></g></g></svg>